<?xml version="1.0" encoding="UTF-8" standalone="no"?>
<!DOCTYPE svg PUBLIC "-//W3C//DTD SVG 1.1//EN"
 "http://www.w3.org/Graphics/SVG/1.1/DTD/svg11.dtd">
<!-- Generated by graphviz version 2.40.1 (20161225.0304)
 -->
<!-- Title: G Pages: 1 -->
<svg width="2186pt" height="678pt"
 viewBox="0.00 0.00 2185.84 677.72" xmlns="http://www.w3.org/2000/svg" xmlns:xlink="http://www.w3.org/1999/xlink">
<g id="graph0" class="graph" transform="scale(1 1) rotate(0) translate(4 673.7212)">
<title>G</title>
<polygon fill="#ffffff" stroke="transparent" points="-4,4 -4,-673.7212 2181.8394,-673.7212 2181.8394,4 -4,4"/>
<text text-anchor="start" x="2018.8809" y="-39" font-family="Times,serif" font-weight="bold" font-size="15.00" fill="#000000">MNet Network Diagram</text>
<text text-anchor="start" x="2072.8194" y="-25.6" font-family="Times,serif" font-size="13.00" fill="#000000">2017&#45;01&#45;06 10:59</text>
<text text-anchor="start" x="2078.8599" y="-17.4" font-family="Times,serif" font-size="7.00" fill="#000000">Generated by MNet Suite 0.8.1</text>
<text text-anchor="start" x="2086.7315" y="-10.4" font-family="Times,serif" font-size="7.00" fill="#000000">Written by Michael Laforest</text>
<!-- FNBT_60_Gigabit_Fiber_Switch -->
<g id="node1" class="node">
<title>FNBT_60_Gigabit_Fiber_Switch</title>
<polygon fill="none" stroke="#000000" points="1318.8403,-665.7043 1168.414,-612.4802 1318.8403,-559.2562 1469.2666,-612.4802 1318.8403,-665.7043"/>
<polygon fill="none" stroke="#000000" points="1318.8403,-669.9632 1156.3772,-612.4802 1318.8403,-554.9973 1481.3034,-612.4802 1318.8403,-669.9632"/>
<text text-anchor="start" x="1251.6186" y="-627.9802" font-family="Times,serif" font-weight="bold" font-size="10.00" fill="#000000">FNBT_60_Gigabit_Fiber_Switch</text>
<text text-anchor="start" x="1299.8403" y="-619.5802" font-family="Times,serif" font-style="italic" font-size="8.00" fill="#000000">172.16.6.60</text>
<text text-anchor="start" x="1309.0933" y="-610.7802" font-family="Times,serif" font-size="9.00" fill="#000000">None</text>
<text text-anchor="start" x="1307.5903" y="-601.7802" font-family="Times,serif" font-size="9.00" fill="#000000">16.3.2</text>
<text text-anchor="start" x="1297.2192" y="-592.7802" font-family="Times,serif" font-size="9.00" fill="#000000">Stackwise 2</text>
</g>
<!-- FNBT_IT_DOT9_SWITCH -->
<g id="node2" class="node">
<title>FNBT_IT_DOT9_SWITCH</title>
<ellipse fill="none" stroke="#000000" cx="91.8403" cy="-441.7626" rx="91.6809" ry="31.2258"/>
<text text-anchor="start" x="34.8994" y="-452.7626" font-family="Times,serif" font-weight="bold" font-size="10.00" fill="#000000">FNBT_IT_DOT9_SWITCH</text>
<text text-anchor="start" x="74.8403" y="-444.3626" font-family="Times,serif" font-style="italic" font-size="8.00" fill="#000000">172.16.6.9</text>
<text text-anchor="start" x="82.0933" y="-435.5626" font-family="Times,serif" font-size="9.00" fill="#000000">None</text>
<text text-anchor="start" x="63.9724" y="-426.5626" font-family="Times,serif" font-size="9.00" fill="#000000">12.1(22)EA10a</text>
</g>
<!-- FNBT_60_Gigabit_Fiber_Switch&#45;&#45;FNBT_IT_DOT9_SWITCH -->
<g id="edge1" class="edge">
<title>FNBT_60_Gigabit_Fiber_Switch&#45;&#45;FNBT_IT_DOT9_SWITCH</title>
<path fill="none" stroke="#0000ff" stroke-width="2" d="M1168.0058,-608.3075C949.698,-599.3293 534.4123,-571.1742 192.8403,-483.2393 180.3331,-480.0194 167.3292,-475.5755 154.979,-470.7872"/>
<polygon fill="#0000ff" stroke="#0000ff" stroke-width="2" points="156.266,-467.5325 145.6812,-467.0731 153.6692,-474.033 156.266,-467.5325"/>
<text text-anchor="middle" x="461.9658" y="-530.0393" font-family="Times,serif" font-size="9.00" fill="#000000">P:gi1/0/1</text>
<text text-anchor="middle" x="461.9658" y="-521.0393" font-family="Times,serif" font-size="9.00" fill="#000000">C:fa0/24</text>
<text text-anchor="middle" x="461.9658" y="-512.0393" font-family="Times,serif" font-size="9.00" fill="#000000">Native 1</text>
<text text-anchor="middle" x="461.9658" y="-503.0393" font-family="Times,serif" font-size="9.00" fill="#000000">Allowed P:All</text>
</g>
<!-- 0050568e774e -->
<g id="node3" class="node">
<title>0050568e774e</title>
<ellipse fill="none" stroke="#000000" cx="459.8403" cy="-441.7626" rx="257.8034" ry="31.2258"/>
<text text-anchor="start" x="430.4019" y="-452.7626" font-family="Times,serif" font-weight="bold" font-size="10.00" fill="#000000">0050568e774e</text>
<text text-anchor="start" x="440.8403" y="-444.3626" font-family="Times,serif" font-style="italic" font-size="8.00" fill="#000000">172.16.6.51</text>
<text text-anchor="start" x="450.0933" y="-435.5626" font-family="Times,serif" font-size="9.00" fill="#000000">None</text>
<text text-anchor="start" x="285.4763" y="-426.5626" font-family="Times,serif" font-size="9.00" fill="#000000">Cisco Application Deployment Engine OS version: 3.1.0.001 Copyright (c) 2016 Cisco Systems.</text>
</g>
<!-- FNBT_60_Gigabit_Fiber_Switch&#45;&#45;0050568e774e -->
<g id="edge2" class="edge">
<title>FNBT_60_Gigabit_Fiber_Switch&#45;&#45;0050568e774e</title>
<path fill="none" stroke="#000000" d="M1207.4297,-594.3624C1120.6467,-579.9082 997.2483,-558.6077 889.6626,-537.2393 787.9725,-517.0418 673.3862,-491.4462 588.1122,-471.8416"/>
<polygon fill="#000000" stroke="#000000" points="588.6541,-468.3748 578.1237,-469.5418 587.0834,-475.1964 588.6541,-468.3748"/>
<text text-anchor="middle" x="908.4292" y="-525.5393" font-family="Times,serif" font-size="9.00" fill="#000000">P:gi1/0/11</text>
<text text-anchor="middle" x="908.4292" y="-516.5393" font-family="Times,serif" font-size="9.00" fill="#000000">C:eth0</text>
<text text-anchor="middle" x="908.4292" y="-507.5393" font-family="Times,serif" font-size="9.00" fill="#000000">VLAN 1</text>
</g>
<!-- FNBT_MDS9148_01 -->
<g id="node4" class="node">
<title>FNBT_MDS9148_01</title>
<ellipse fill="none" stroke="#000000" cx="808.8403" cy="-441.7626" rx="72.9982" ry="31.2258"/>
<text text-anchor="start" x="765.2222" y="-452.7626" font-family="Times,serif" font-weight="bold" font-size="10.00" fill="#000000">FNBT_MDS9148_01</text>
<text text-anchor="start" x="789.8403" y="-444.3626" font-family="Times,serif" font-style="italic" font-size="8.00" fill="#000000">172.16.6.44</text>
<text text-anchor="start" x="799.0933" y="-435.5626" font-family="Times,serif" font-size="9.00" fill="#000000">None</text>
<text text-anchor="start" x="795.9709" y="-426.5626" font-family="Times,serif" font-size="9.00" fill="#000000">5.0(1a)</text>
</g>
<!-- FNBT_60_Gigabit_Fiber_Switch&#45;&#45;FNBT_MDS9148_01 -->
<g id="edge3" class="edge">
<title>FNBT_60_Gigabit_Fiber_Switch&#45;&#45;FNBT_MDS9148_01</title>
<path fill="none" stroke="#000000" d="M1217.6108,-590.7133C1159.5702,-577.2829 1085.6854,-558.5675 1021.333,-537.2393 961.7536,-517.493 947.8844,-509.4232 890.8403,-483.2393 882.2315,-479.2877 873.2049,-474.938 864.4175,-470.5873"/>
<polygon fill="#000000" stroke="#000000" points="865.8843,-467.4077 855.3743,-466.0699 862.7561,-473.6698 865.8843,-467.4077"/>
<text text-anchor="middle" x="1040.594" y="-525.5393" font-family="Times,serif" font-size="9.00" fill="#000000">P:gi1/0/13</text>
<text text-anchor="middle" x="1040.594" y="-516.5393" font-family="Times,serif" font-size="9.00" fill="#000000">C:mgmt0</text>
<text text-anchor="middle" x="1040.594" y="-507.5393" font-family="Times,serif" font-size="9.00" fill="#000000">VLAN 1</text>
</g>
<!-- FNBT_61_CreditCards -->
<g id="node5" class="node">
<title>FNBT_61_CreditCards</title>
<ellipse fill="none" stroke="#000000" cx="981.8403" cy="-441.7626" rx="77.8939" ry="37.4556"/>
<ellipse fill="none" stroke="#000000" cx="981.8403" cy="-441.7626" rx="81.9038" ry="41.4533"/>
<text text-anchor="start" x="934.897" y="-457.2626" font-family="Times,serif" font-weight="bold" font-size="10.00" fill="#000000">FNBT_61_CreditCards</text>
<text text-anchor="start" x="962.8403" y="-448.8626" font-family="Times,serif" font-style="italic" font-size="8.00" fill="#000000">172.16.6.61</text>
<text text-anchor="start" x="972.0933" y="-440.0626" font-family="Times,serif" font-size="9.00" fill="#000000">None</text>
<text text-anchor="start" x="963.3415" y="-431.0626" font-family="Times,serif" font-size="9.00" fill="#000000">03.07.04E</text>
<text text-anchor="start" x="960.2192" y="-422.0626" font-family="Times,serif" font-size="9.00" fill="#000000">Stackwise 2</text>
</g>
<!-- FNBT_60_Gigabit_Fiber_Switch&#45;&#45;FNBT_61_CreditCards -->
<g id="edge4" class="edge">
<title>FNBT_60_Gigabit_Fiber_Switch&#45;&#45;FNBT_61_CreditCards</title>
<path fill="none" stroke="#000000" d="M1233.8054,-585.0617C1198.2184,-572.3252 1156.9394,-555.8671 1121.3408,-537.2393 1091.554,-521.6526 1060.4929,-500.8982 1035.2619,-482.7216"/>
<polygon fill="#000000" stroke="#000000" points="1037.0848,-479.7195 1026.9391,-476.6674 1032.967,-485.3803 1037.0848,-479.7195"/>
<text text-anchor="middle" x="1138.5901" y="-525.5393" font-family="Times,serif" font-size="9.00" fill="#000000">P:te1/1/1</text>
<text text-anchor="middle" x="1138.5901" y="-516.5393" font-family="Times,serif" font-size="9.00" fill="#000000">C:te1/1/1</text>
<text text-anchor="middle" x="1138.5901" y="-507.5393" font-family="Times,serif" font-size="9.00" fill="#000000">VLAN 1</text>
</g>
<!-- FNBT_69_OldRack -->
<g id="node6" class="node">
<title>FNBT_69_OldRack</title>
<ellipse fill="none" stroke="#000000" cx="1149.8403" cy="-441.7626" rx="68.8324" ry="31.2258"/>
<text text-anchor="start" x="1109.2861" y="-452.7626" font-family="Times,serif" font-weight="bold" font-size="10.00" fill="#000000">FNBT_69_OldRack</text>
<text text-anchor="start" x="1130.8403" y="-444.3626" font-family="Times,serif" font-style="italic" font-size="8.00" fill="#000000">172.16.6.69</text>
<text text-anchor="start" x="1110.3423" y="-435.5626" font-family="Times,serif" font-size="9.00" fill="#000000">WS&#45;C2960X&#45;24PD&#45;L</text>
<text text-anchor="start" x="1131.7195" y="-426.5626" font-family="Times,serif" font-size="9.00" fill="#000000">15.2(2)E5</text>
</g>
<!-- FNBT_60_Gigabit_Fiber_Switch&#45;&#45;FNBT_69_OldRack -->
<g id="edge6" class="edge">
<title>FNBT_60_Gigabit_Fiber_Switch&#45;&#45;FNBT_69_OldRack</title>
<path fill="none" stroke="#0000ff" stroke-width="2" d="M1237.6243,-583.6652C1215.1368,-572.2567 1192.5483,-557.0289 1176.5874,-537.2393 1164.2441,-521.935 1157.5907,-501.2812 1154.0071,-483.098"/>
<polygon fill="#0000ff" stroke="#0000ff" stroke-width="2" points="1157.4181,-482.2813 1152.2737,-473.0193 1150.5194,-483.4679 1157.4181,-482.2813"/>
<text text-anchor="middle" x="1198.9668" y="-530.0393" font-family="Times,serif" font-size="9.00" fill="#000000">P:te1/1/2</text>
<text text-anchor="middle" x="1198.9668" y="-521.0393" font-family="Times,serif" font-size="9.00" fill="#000000">C:te1/0/1</text>
<text text-anchor="middle" x="1198.9668" y="-512.0393" font-family="Times,serif" font-size="9.00" fill="#000000">Native 1</text>
<text text-anchor="middle" x="1198.9668" y="-503.0393" font-family="Times,serif" font-size="9.00" fill="#000000">Allowed All</text>
</g>
<!-- FNBT_60_Gigabit_Fiber_Switch&#45;&#45;FNBT_69_OldRack -->
<g id="edge13" class="edge">
<title>FNBT_60_Gigabit_Fiber_Switch&#45;&#45;FNBT_69_OldRack</title>
<path fill="none" stroke="#0000ff" stroke-width="2" d="M1282.1458,-567.7655C1264.3383,-546.8811 1242.213,-522.0865 1220.8403,-501.2393 1211.8484,-492.4685 1201.7331,-483.5123 1192.0173,-475.3006"/>
<polygon fill="#0000ff" stroke="#0000ff" stroke-width="2" points="1194.26,-472.6135 1184.3401,-468.8923 1189.7743,-477.9874 1194.26,-472.6135"/>
<text text-anchor="middle" x="1276.9668" y="-530.0393" font-family="Times,serif" font-size="9.00" fill="#000000">P:te2/0/48</text>
<text text-anchor="middle" x="1276.9668" y="-521.0393" font-family="Times,serif" font-size="9.00" fill="#000000">C:gi1/0/2</text>
<text text-anchor="middle" x="1276.9668" y="-512.0393" font-family="Times,serif" font-size="9.00" fill="#000000">Native 1</text>
<text text-anchor="middle" x="1276.9668" y="-503.0393" font-family="Times,serif" font-size="9.00" fill="#000000">Allowed All</text>
</g>
<!-- FNBT_65_Proof_Switch -->
<g id="node8" class="node">
<title>FNBT_65_Proof_Switch</title>
<ellipse fill="none" stroke="#000000" cx="1318.8403" cy="-441.7626" rx="82.343" ry="31.2258"/>
<text text-anchor="start" x="1268.5596" y="-452.7626" font-family="Times,serif" font-weight="bold" font-size="10.00" fill="#000000">FNBT_65_Proof_Switch</text>
<text text-anchor="start" x="1299.8403" y="-444.3626" font-family="Times,serif" font-style="italic" font-size="8.00" fill="#000000">172.16.6.65</text>
<text text-anchor="start" x="1279.3423" y="-435.5626" font-family="Times,serif" font-size="9.00" fill="#000000">WS&#45;C2960X&#45;24PD&#45;L</text>
<text text-anchor="start" x="1300.7195" y="-426.5626" font-family="Times,serif" font-size="9.00" fill="#000000">15.2(2)E5</text>
</g>
<!-- FNBT_60_Gigabit_Fiber_Switch&#45;&#45;FNBT_65_Proof_Switch -->
<g id="edge9" class="edge">
<title>FNBT_60_Gigabit_Fiber_Switch&#45;&#45;FNBT_65_Proof_Switch</title>
<path fill="none" stroke="#000000" d="M1318.8403,-555.1588C1318.8403,-531.684 1318.8403,-505.0266 1318.8403,-483.4587"/>
<polygon fill="#000000" stroke="#000000" points="1322.3404,-483.3158 1318.8403,-473.3158 1315.3404,-483.3159 1322.3404,-483.3158"/>
<text text-anchor="middle" x="1335.5901" y="-525.5393" font-family="Times,serif" font-size="9.00" fill="#000000">P:te1/1/3</text>
<text text-anchor="middle" x="1335.5901" y="-516.5393" font-family="Times,serif" font-size="9.00" fill="#000000">C:te1/0/1</text>
<text text-anchor="middle" x="1335.5901" y="-507.5393" font-family="Times,serif" font-size="9.00" fill="#000000">VLAN 1</text>
</g>
<!-- FNBT_63_Annex -->
<g id="node9" class="node">
<title>FNBT_63_Annex</title>
<polygon fill="none" stroke="#000000" points="1369.8403,-323.773 1281.6287,-270.6196 1369.8403,-217.4663 1458.052,-270.6196 1369.8403,-323.773"/>
<polygon fill="none" stroke="#000000" points="1369.8403,-328.4528 1273.8622,-270.6196 1369.8403,-212.7865 1465.8184,-270.6196 1369.8403,-328.4528"/>
<text text-anchor="start" x="1333.7295" y="-286.1196" font-family="Times,serif" font-weight="bold" font-size="10.00" fill="#000000">FNBT_63_Annex</text>
<text text-anchor="start" x="1350.8403" y="-277.7196" font-family="Times,serif" font-style="italic" font-size="8.00" fill="#000000">172.16.6.63</text>
<text text-anchor="start" x="1360.0933" y="-268.9196" font-family="Times,serif" font-size="9.00" fill="#000000">None</text>
<text text-anchor="start" x="1351.7195" y="-259.9196" font-family="Times,serif" font-size="9.00" fill="#000000">15.2(2)E5</text>
<text text-anchor="start" x="1348.2192" y="-250.9196" font-family="Times,serif" font-size="9.00" fill="#000000">Stackwise 2</text>
</g>
<!-- FNBT_60_Gigabit_Fiber_Switch&#45;&#45;FNBT_63_Annex -->
<g id="edge16" class="edge">
<title>FNBT_60_Gigabit_Fiber_Switch&#45;&#45;FNBT_63_Annex</title>
<path fill="none" stroke="#0000ff" stroke-width="2" d="M1359.4661,-569.2634C1378.7634,-545.7508 1399.7727,-515.0246 1409.8403,-483.2393 1426.4473,-430.8079 1410.9704,-368.7957 1394.679,-325.3158"/>
<polygon fill="#0000ff" stroke="#0000ff" stroke-width="2" points="1397.8605,-323.8393 1390.9822,-315.7808 1391.3339,-326.3698 1397.8605,-323.8393"/>
<text text-anchor="middle" x="1439.9668" y="-452.5626" font-family="Times,serif" font-size="9.00" fill="#000000">P:te2/1/4</text>
<text text-anchor="middle" x="1439.9668" y="-443.5626" font-family="Times,serif" font-size="9.00" fill="#000000">C:te2/0/1</text>
<text text-anchor="middle" x="1439.9668" y="-434.5626" font-family="Times,serif" font-size="9.00" fill="#000000">Native 1</text>
<text text-anchor="middle" x="1439.9668" y="-425.5626" font-family="Times,serif" font-size="9.00" fill="#000000">Allowed All</text>
</g>
<!-- FNBT_64_Skywalk -->
<g id="node10" class="node">
<title>FNBT_64_Skywalk</title>
<ellipse fill="none" stroke="#000000" cx="1493.8403" cy="-99.4767" rx="68.0715" ry="37.4556"/>
<ellipse fill="none" stroke="#000000" cx="1493.8403" cy="-99.4767" rx="72.0593" ry="41.4533"/>
<text text-anchor="start" x="1453.5596" y="-114.9767" font-family="Times,serif" font-weight="bold" font-size="10.00" fill="#000000">FNBT_64_Skywalk</text>
<text text-anchor="start" x="1474.8403" y="-106.5767" font-family="Times,serif" font-style="italic" font-size="8.00" fill="#000000">172.16.6.64</text>
<text text-anchor="start" x="1484.0933" y="-97.7767" font-family="Times,serif" font-size="9.00" fill="#000000">None</text>
<text text-anchor="start" x="1475.7195" y="-88.7767" font-family="Times,serif" font-size="9.00" fill="#000000">15.2(2)E5</text>
<text text-anchor="start" x="1472.2192" y="-79.7767" font-family="Times,serif" font-size="9.00" fill="#000000">Stackwise 2</text>
</g>
<!-- FNBT_60_Gigabit_Fiber_Switch&#45;&#45;FNBT_64_Skywalk -->
<g id="edge14" class="edge">
<title>FNBT_60_Gigabit_Fiber_Switch&#45;&#45;FNBT_64_Skywalk</title>
<path fill="none" stroke="#0000ff" stroke-width="2" d="M1379.6185,-576.1542C1411.2669,-553.6814 1447.1692,-521.7709 1465.8403,-483.2393 1493.5392,-426.0772 1495.5369,-242.0683 1494.7328,-151.2141"/>
<polygon fill="#0000ff" stroke="#0000ff" stroke-width="2" points="1498.2319,-151.1006 1494.6286,-141.1373 1491.2323,-151.173 1498.2319,-151.1006"/>
<text text-anchor="middle" x="1512.9668" y="-375.086" font-family="Times,serif" font-size="9.00" fill="#000000">P:te2/1/1</text>
<text text-anchor="middle" x="1512.9668" y="-366.086" font-family="Times,serif" font-size="9.00" fill="#000000">C:te2/0/1</text>
<text text-anchor="middle" x="1512.9668" y="-357.086" font-family="Times,serif" font-size="9.00" fill="#000000">Native 1</text>
<text text-anchor="middle" x="1512.9668" y="-348.086" font-family="Times,serif" font-size="9.00" fill="#000000">Allowed All</text>
</g>
<!-- FNBT_60_Gigabit_Fiber_Switch&#45;&#45;FNBT_64_Skywalk -->
<g id="edge15" class="edge">
<title>FNBT_60_Gigabit_Fiber_Switch&#45;&#45;FNBT_64_Skywalk</title>
<path fill="none" stroke="#0000ff" stroke-width="2" d="M1391.7148,-580.6302C1413.5211,-568.9643 1436.4877,-554.3545 1454.8403,-537.2393 1512.1301,-483.812 1521.2913,-458.6314 1538.8403,-382.286 1557.3704,-301.6724 1532.8082,-206.3897 1513.3387,-149.5539"/>
<polygon fill="#0000ff" stroke="#0000ff" stroke-width="2" points="1516.631,-148.3654 1510.0201,-140.0861 1510.025,-150.6809 1516.631,-148.3654"/>
<text text-anchor="middle" x="1566.9668" y="-375.086" font-family="Times,serif" font-size="9.00" fill="#000000">P:te2/1/2</text>
<text text-anchor="middle" x="1566.9668" y="-366.086" font-family="Times,serif" font-size="9.00" fill="#000000">C:te1/0/1</text>
<text text-anchor="middle" x="1566.9668" y="-357.086" font-family="Times,serif" font-size="9.00" fill="#000000">Native 1</text>
<text text-anchor="middle" x="1566.9668" y="-348.086" font-family="Times,serif" font-size="9.00" fill="#000000">Allowed All</text>
</g>
<!-- FNBT_62_Mortgage_One_Switch -->
<g id="node11" class="node">
<title>FNBT_62_Mortgage_One_Switch</title>
<ellipse fill="none" stroke="#000000" cx="1691.8403" cy="-441.7626" rx="109.5291" ry="31.2258"/>
<text text-anchor="start" x="1622.4019" y="-452.7626" font-family="Times,serif" font-weight="bold" font-size="10.00" fill="#000000">FNBT_62_Mortgage_One_Switch</text>
<text text-anchor="start" x="1672.8403" y="-444.3626" font-family="Times,serif" font-style="italic" font-size="8.00" fill="#000000">172.16.6.62</text>
<text text-anchor="start" x="1649.8396" y="-435.5626" font-family="Times,serif" font-size="9.00" fill="#000000">WS&#45;C2960X&#45;48FPD&#45;L</text>
<text text-anchor="start" x="1673.7195" y="-426.5626" font-family="Times,serif" font-size="9.00" fill="#000000">15.2(2)E5</text>
</g>
<!-- FNBT_60_Gigabit_Fiber_Switch&#45;&#45;FNBT_62_Mortgage_One_Switch -->
<g id="edge10" class="edge">
<title>FNBT_60_Gigabit_Fiber_Switch&#45;&#45;FNBT_62_Mortgage_One_Switch</title>
<path fill="none" stroke="#0000ff" stroke-width="2" d="M1420.2064,-590.7556C1466.7129,-578.5763 1521.6515,-560.9815 1567.8403,-537.2393 1598.4517,-521.5042 1629.1312,-497.9626 1652.3157,-478.1936"/>
<polygon fill="#0000ff" stroke="#0000ff" stroke-width="2" points="1654.6065,-480.8398 1659.88,-471.6506 1650.027,-475.5455 1654.6065,-480.8398"/>
<text text-anchor="middle" x="1644.9668" y="-530.0393" font-family="Times,serif" font-size="9.00" fill="#000000">P:te1/1/4</text>
<text text-anchor="middle" x="1644.9668" y="-521.0393" font-family="Times,serif" font-size="9.00" fill="#000000">C:te1/0/1</text>
<text text-anchor="middle" x="1644.9668" y="-512.0393" font-family="Times,serif" font-size="9.00" fill="#000000">Native 1</text>
<text text-anchor="middle" x="1644.9668" y="-503.0393" font-family="Times,serif" font-size="9.00" fill="#000000">Allowed All</text>
</g>
<!-- FBS_FNBT_Segment.fbss.net -->
<g id="node12" class="node">
<title>FBS_FNBT_Segment.fbss.net</title>
<ellipse fill="none" stroke="#000000" cx="1916.8403" cy="-441.7626" rx="97.2087" ry="31.2258"/>
<text text-anchor="start" x="1856.0005" y="-452.7626" font-family="Times,serif" font-weight="bold" font-size="10.00" fill="#000000">FBS_FNBT_Segment.fbss.net</text>
<text text-anchor="start" x="1899.8403" y="-444.3626" font-family="Times,serif" font-style="italic" font-size="8.00" fill="#000000">172.16.6.1</text>
<text text-anchor="start" x="1907.0933" y="-435.5626" font-family="Times,serif" font-size="9.00" fill="#000000">None</text>
<text text-anchor="start" x="1896.4695" y="-426.5626" font-family="Times,serif" font-size="9.00" fill="#000000">12.4(24)T6</text>
</g>
<!-- FNBT_60_Gigabit_Fiber_Switch&#45;&#45;FBS_FNBT_Segment.fbss.net -->
<g id="edge11" class="edge">
<title>FNBT_60_Gigabit_Fiber_Switch&#45;&#45;FBS_FNBT_Segment.fbss.net</title>
<path fill="none" stroke="#000000" d="M1428.5778,-593.6351C1498.593,-580.4825 1590.8823,-561.0438 1670.8403,-537.2393 1734.7582,-518.2101 1748.6764,-507.3899 1810.8403,-483.2393 1822.0651,-478.8785 1833.9522,-474.2436 1845.5503,-469.7122"/>
<polygon fill="#000000" stroke="#000000" points="1847.1645,-472.8392 1855.2038,-465.9385 1844.6158,-466.3196 1847.1645,-472.8392"/>
<text text-anchor="middle" x="1782.344" y="-525.5393" font-family="Times,serif" font-size="9.00" fill="#000000">P:gi2/0/1</text>
<text text-anchor="middle" x="1782.344" y="-516.5393" font-family="Times,serif" font-size="9.00" fill="#000000">C:fa0/1</text>
<text text-anchor="middle" x="1782.344" y="-507.5393" font-family="Times,serif" font-size="9.00" fill="#000000">VLAN 1</text>
</g>
<!-- FNBT_MDS9148_02 -->
<g id="node13" class="node">
<title>FNBT_MDS9148_02</title>
<ellipse fill="none" stroke="#000000" cx="2104.8403" cy="-441.7626" rx="72.9982" ry="31.2258"/>
<text text-anchor="start" x="2061.2222" y="-452.7626" font-family="Times,serif" font-weight="bold" font-size="10.00" fill="#000000">FNBT_MDS9148_02</text>
<text text-anchor="start" x="2085.8403" y="-444.3626" font-family="Times,serif" font-style="italic" font-size="8.00" fill="#000000">172.16.6.45</text>
<text text-anchor="start" x="2095.0933" y="-435.5626" font-family="Times,serif" font-size="9.00" fill="#000000">None</text>
<text text-anchor="start" x="2091.9709" y="-426.5626" font-family="Times,serif" font-size="9.00" fill="#000000">5.0(1a)</text>
</g>
<!-- FNBT_60_Gigabit_Fiber_Switch&#45;&#45;FNBT_MDS9148_02 -->
<g id="edge12" class="edge">
<title>FNBT_60_Gigabit_Fiber_Switch&#45;&#45;FNBT_MDS9148_02</title>
<path fill="none" stroke="#000000" d="M1451.5456,-601.8779C1595.8318,-587.225 1831.4261,-554.0868 2022.8403,-483.2393 2032.154,-479.7921 2041.7867,-475.5688 2051.0326,-471.1509"/>
<polygon fill="#000000" stroke="#000000" points="2052.6882,-474.2372 2060.1234,-466.6895 2049.6042,-467.9531 2052.6882,-474.2372"/>
<text text-anchor="middle" x="1987.594" y="-525.5393" font-family="Times,serif" font-size="9.00" fill="#000000">P:gi2/0/13</text>
<text text-anchor="middle" x="1987.594" y="-516.5393" font-family="Times,serif" font-size="9.00" fill="#000000">C:mgmt0</text>
<text text-anchor="middle" x="1987.594" y="-507.5393" font-family="Times,serif" font-size="9.00" fill="#000000">VLAN 1</text>
</g>
<!-- FNBT_IT_DOT8_SWITCH -->
<g id="node7" class="node">
<title>FNBT_IT_DOT8_SWITCH</title>
<ellipse fill="none" stroke="#000000" cx="1149.8403" cy="-270.6196" rx="91.6809" ry="31.2258"/>
<text text-anchor="start" x="1092.8994" y="-281.6196" font-family="Times,serif" font-weight="bold" font-size="10.00" fill="#000000">FNBT_IT_DOT8_SWITCH</text>
<text text-anchor="start" x="1132.8403" y="-273.2196" font-family="Times,serif" font-style="italic" font-size="8.00" fill="#000000">172.16.6.8</text>
<text text-anchor="start" x="1140.0933" y="-264.4196" font-family="Times,serif" font-size="9.00" fill="#000000">None</text>
<text text-anchor="start" x="1124.2224" y="-255.4196" font-family="Times,serif" font-size="9.00" fill="#000000">12.1(19)EA1c</text>
</g>
<!-- FNBT_69_OldRack&#45;&#45;FNBT_IT_DOT8_SWITCH -->
<g id="edge5" class="edge">
<title>FNBT_69_OldRack&#45;&#45;FNBT_IT_DOT8_SWITCH</title>
<path fill="none" stroke="#0000ff" stroke-width="2" d="M1149.8403,-410.3724C1149.8403,-382.7495 1149.8403,-342.3306 1149.8403,-312.058"/>
<polygon fill="#0000ff" stroke="#0000ff" stroke-width="2" points="1153.3404,-311.8109 1149.8403,-301.8109 1146.3404,-311.8109 1153.3404,-311.8109"/>
<text text-anchor="middle" x="1175.9658" y="-375.086" font-family="Times,serif" font-size="9.00" fill="#000000">P:gi1/0/9</text>
<text text-anchor="middle" x="1175.9658" y="-366.086" font-family="Times,serif" font-size="9.00" fill="#000000">C:fa0/1</text>
<text text-anchor="middle" x="1175.9658" y="-357.086" font-family="Times,serif" font-size="9.00" fill="#000000">Native 1</text>
<text text-anchor="middle" x="1175.9658" y="-348.086" font-family="Times,serif" font-size="9.00" fill="#000000">Allowed P:All</text>
</g>
<!-- FNBT_65_Proof_Switch&#45;&#45;FNBT_63_Annex -->
<g id="edge8" class="edge">
<title>FNBT_65_Proof_Switch&#45;&#45;FNBT_63_Annex</title>
<path fill="none" stroke="#0000ff" stroke-width="2" d="M1328.076,-410.7699C1334.7997,-388.2072 1344.1124,-356.9559 1352.2381,-329.6882"/>
<polygon fill="#0000ff" stroke="#0000ff" stroke-width="2" points="1355.6694,-330.4291 1355.1711,-319.846 1348.9609,-328.4299 1355.6694,-330.4291"/>
<text text-anchor="middle" x="1368.9668" y="-375.086" font-family="Times,serif" font-size="9.00" fill="#000000">P:gi1/0/22</text>
<text text-anchor="middle" x="1368.9668" y="-366.086" font-family="Times,serif" font-size="9.00" fill="#000000">C:gi2/0/22</text>
<text text-anchor="middle" x="1368.9668" y="-357.086" font-family="Times,serif" font-size="9.00" fill="#000000">Native 1</text>
<text text-anchor="middle" x="1368.9668" y="-348.086" font-family="Times,serif" font-size="9.00" fill="#000000">Allowed All</text>
</g>
<!-- FNBT_63_Annex&#45;&#45;FNBT_64_Skywalk -->
<g id="edge7" class="edge">
<title>FNBT_63_Annex&#45;&#45;FNBT_64_Skywalk</title>
<path fill="none" stroke="#0000ff" stroke-width="2" d="M1392.6365,-226.3601C1404.3456,-205.1859 1419.5148,-179.94 1435.5874,-158.9533 1439.7796,-153.4794 1444.4321,-147.9804 1449.2278,-142.6556"/>
<polygon fill="#0000ff" stroke="#0000ff" stroke-width="2" points="1452.0902,-144.7161 1456.3197,-135.0021 1446.9556,-139.9583 1452.0902,-144.7161"/>
<text text-anchor="middle" x="1457.9668" y="-187.7533" font-family="Times,serif" font-size="9.00" fill="#000000">P:gi2/0/1</text>
<text text-anchor="middle" x="1457.9668" y="-178.7533" font-family="Times,serif" font-size="9.00" fill="#000000">C:gi1/0/24</text>
<text text-anchor="middle" x="1457.9668" y="-169.7533" font-family="Times,serif" font-size="9.00" fill="#000000">Native 1</text>
<text text-anchor="middle" x="1457.9668" y="-160.7533" font-family="Times,serif" font-size="9.00" fill="#000000">Allowed All</text>
</g>
</g>
</svg>
